<svg width="100" height="52" viewBox="0 0 100 52" fill="none" xmlns="http://www.w3.org/2000/svg">
<path d="M82.2222 34.7471C78.7387 43.2365 70.598 49.1915 61.1111 49.1915C51.6242 49.1915 43.4835 43.2365 40 34.7471" stroke="url(#paint0_linear_1548_649)" stroke-width="5.05" stroke-linecap="round"/>
<path d="M82.2222 16.9693C78.7387 8.47996 70.598 2.5249 61.1111 2.5249C51.6242 2.5249 43.4835 8.47996 40 16.9693" stroke="url(#paint1_linear_1548_649)" stroke-width="5.05" stroke-linecap="round"/>
<path d="M4.09537 31.3371C3.47665 31.3371 2.91194 31.2398 2.40124 31.0451C1.90037 30.8406 1.47316 30.5485 1.1196 30.1688C0.766041 29.7892 0.491052 29.3316 0.294631 28.7961C0.0982103 28.2509 0 27.6327 0 26.9415V20.6474H1.98876V27.0583C1.98876 27.4088 2.03295 27.7301 2.12134 28.0221C2.20973 28.3142 2.34232 28.5673 2.5191 28.7815C2.69587 28.9957 2.91685 29.1661 3.18201 29.2926C3.44718 29.4095 3.75164 29.4679 4.09537 29.4679C4.44893 29.4679 4.75829 29.4095 5.02346 29.2926C5.28863 29.1661 5.5096 28.9957 5.68638 28.7815C5.86316 28.5673 5.99574 28.3142 6.08413 28.0221C6.17252 27.7301 6.21671 27.4088 6.21671 27.0583V20.6474H8.20547V26.9415C8.20547 27.5938 8.10726 28.1925 7.91084 28.7377C7.72424 29.2732 7.44925 29.7356 7.08588 30.125C6.73232 30.5047 6.30019 30.8017 5.7895 31.0158C5.28863 31.23 4.72392 31.3371 4.09537 31.3371Z" fill="white"/>
<path d="M10.0903 20.6474H13.9352C14.4656 20.6474 14.9468 20.7301 15.3789 20.8956C15.8111 21.0611 16.1793 21.2899 16.4838 21.582C16.7981 21.8741 17.0387 22.2245 17.2056 22.6334C17.3726 23.0326 17.4561 23.4707 17.4561 23.9478C17.4561 24.2982 17.3972 24.6293 17.2793 24.9408C17.1615 25.2426 16.9994 25.5201 16.7932 25.7732C16.5869 26.0166 16.3463 26.2356 16.0713 26.4304C15.7963 26.6153 15.5066 26.7614 15.2022 26.8685L15.1874 26.9707L18.0159 30.9866V31.1035H15.7325L13.0072 27.1751H12.0791V31.1035H10.0903V20.6474ZM13.9205 25.3643C14.3723 25.3643 14.7406 25.228 15.0254 24.9554C15.32 24.6828 15.4673 24.3372 15.4673 23.9186C15.4673 23.7336 15.433 23.5535 15.3642 23.3782C15.3053 23.203 15.212 23.0472 15.0843 22.9109C14.9566 22.7746 14.7946 22.6675 14.5982 22.5896C14.4116 22.502 14.1955 22.4582 13.95 22.4582H12.0791V25.3643H13.9205Z" fill="white"/>
<path d="M28.3354 28.8156C27.892 29.5912 27.2922 30.2181 26.536 30.6963C25.7928 31.1746 24.88 31.4137 23.7978 31.4137C23.0676 31.4137 22.3896 31.2909 21.7637 31.0453C21.1509 30.7868 20.6163 30.4313 20.1599 29.9789C19.7035 29.5265 19.345 28.9966 19.0842 28.3891C18.8364 27.7686 18.7126 27.09 18.7126 26.3533C18.7126 25.6682 18.8364 25.0219 19.0842 24.4144C19.3319 23.794 19.6775 23.2576 20.1208 22.8052C20.5641 22.3399 21.0857 21.9715 21.6855 21.7C22.2983 21.4286 22.9698 21.2929 23.7 21.2929C24.4693 21.2929 25.1538 21.4221 25.7536 21.6806C26.3534 21.9262 26.8554 22.2752 27.2596 22.7276C27.6639 23.1671 27.9703 23.6906 28.1789 24.2981C28.3875 24.9056 28.4918 25.5648 28.4918 26.2757C28.4918 26.3662 28.4918 26.4438 28.4918 26.5084C28.4788 26.5859 28.4723 26.657 28.4723 26.7217C28.4592 26.7863 28.4527 26.8574 28.4527 26.9349H21.2356C21.2878 27.3227 21.3921 27.6588 21.5485 27.9431C21.7181 28.2146 21.9202 28.4472 22.1549 28.6411C22.4026 28.8221 22.6699 28.9578 22.9568 29.0483C23.2436 29.1258 23.537 29.1646 23.8369 29.1646C24.4237 29.1646 24.9061 29.0354 25.2842 28.7768C25.6754 28.5054 25.9818 28.1693 26.2035 27.7686L28.3354 28.8156ZM26.0079 25.1318C25.9949 24.9638 25.9362 24.7763 25.8319 24.5695C25.7406 24.3627 25.5972 24.1688 25.4016 23.9879C25.219 23.8069 24.9843 23.6583 24.6975 23.5419C24.4237 23.4256 24.0912 23.3674 23.7 23.3674C23.1523 23.3674 22.6699 23.5226 22.2527 23.8328C21.8354 24.143 21.542 24.576 21.3725 25.1318H26.0079Z" fill="white"/>
<path d="M30.1282 31.1035V17.2213H32.6903V31.1035H30.1282Z" fill="white"/>
<path d="M39.3262 21.2929C40.0694 21.2929 40.7475 21.4221 41.3603 21.6806C41.9862 21.9262 42.5208 22.2752 42.9641 22.7276C43.4205 23.1671 43.7725 23.6971 44.0202 24.3175C44.281 24.9379 44.4114 25.6165 44.4114 26.3533C44.4114 27.09 44.281 27.7686 44.0202 28.3891C43.7725 29.0095 43.4205 29.5459 42.9641 29.9983C42.5208 30.4378 41.9862 30.7868 41.3603 31.0453C40.7475 31.2909 40.0694 31.4137 39.3262 31.4137C38.583 31.4137 37.8984 31.2909 37.2725 31.0453C36.6597 30.7868 36.1251 30.4378 35.6687 29.9983C35.2254 29.5459 34.8734 29.0095 34.6126 28.3891C34.3648 27.7686 34.241 27.09 34.241 26.3533C34.241 25.6165 34.3648 24.9379 34.6126 24.3175C34.8734 23.6971 35.2254 23.1671 35.6687 22.7276C36.1251 22.2752 36.6597 21.9262 37.2725 21.6806C37.8984 21.4221 38.583 21.2929 39.3262 21.2929ZM39.3262 29.0677C39.6522 29.0677 39.9651 29.0095 40.265 28.8932C40.5779 28.7639 40.8518 28.583 41.0865 28.3503C41.3212 28.1176 41.5037 27.8333 41.6341 27.4972C41.7775 27.1611 41.8492 26.7798 41.8492 26.3533C41.8492 25.9267 41.7775 25.5454 41.6341 25.2094C41.5037 24.8733 41.3212 24.5889 41.0865 24.3563C40.8518 24.1236 40.5779 23.9491 40.265 23.8328C39.9651 23.7035 39.6522 23.6389 39.3262 23.6389C38.9872 23.6389 38.6677 23.7035 38.3678 23.8328C38.0679 23.9491 37.8006 24.1236 37.5659 24.3563C37.3312 24.5889 37.1422 24.8733 36.9987 25.2094C36.8683 25.5454 36.8031 25.9267 36.8031 26.3533C36.8031 26.7798 36.8683 27.1611 36.9987 27.4972C37.1422 27.8333 37.3312 28.1176 37.5659 28.3503C37.8006 28.583 38.0679 28.7639 38.3678 28.8932C38.6677 29.0095 38.9872 29.0677 39.3262 29.0677Z" fill="white"/>
<path d="M55.1524 28.6799C54.7352 29.4813 54.1484 30.1405 53.3921 30.6575C52.6489 31.1616 51.7166 31.4137 50.5953 31.4137C49.8521 31.4137 49.1675 31.2909 48.5416 31.0453C47.9288 30.7868 47.3942 30.4313 46.9378 29.9789C46.4945 29.5265 46.1425 28.9966 45.8817 28.3891C45.6339 27.7686 45.5101 27.09 45.5101 26.3533C45.5101 25.6165 45.6339 24.9379 45.8817 24.3175C46.1425 23.6971 46.4945 23.1671 46.9378 22.7276C47.3942 22.2752 47.9288 21.9262 48.5416 21.6806C49.1675 21.4221 49.8521 21.2929 50.5953 21.2929C51.7036 21.2929 52.6359 21.5449 53.3921 22.049C54.1484 22.5531 54.7026 23.2059 55.0546 24.0073L52.7076 24.9767C52.4859 24.5372 52.1991 24.2076 51.847 23.9879C51.508 23.7552 51.0777 23.6389 50.5562 23.6389C50.2171 23.6389 49.8977 23.7035 49.5978 23.8328C49.2979 23.962 49.0306 24.143 48.7959 24.3757C48.5742 24.6083 48.3982 24.8927 48.2678 25.2287C48.1374 25.5648 48.0722 25.9397 48.0722 26.3533C48.0722 26.7669 48.1374 27.1417 48.2678 27.4778C48.3982 27.8139 48.5742 28.0982 48.7959 28.3309C49.0306 28.5636 49.2979 28.7445 49.5978 28.8738C49.8977 29.003 50.2171 29.0677 50.5562 29.0677C51.0908 29.0677 51.5406 28.9513 51.9057 28.7187C52.2838 28.4731 52.5837 28.1241 52.8054 27.6717L55.1524 28.6799Z" fill="white"/>
<path d="M62.5268 30.0953H62.3703C62.0704 30.4572 61.7053 30.7674 61.275 31.0259C60.8578 31.2844 60.3166 31.4137 59.6516 31.4137C59.1562 31.4137 58.6868 31.3297 58.2434 31.1616C57.8131 31.0065 57.435 30.7868 57.109 30.5024C56.7831 30.2181 56.5288 29.8755 56.3463 29.4748C56.1637 29.0741 56.0724 28.6347 56.0724 28.1564C56.0724 27.6652 56.1702 27.2258 56.3658 26.838C56.5614 26.4373 56.8352 26.0948 57.1873 25.8104C57.5393 25.526 57.9501 25.3128 58.4195 25.1706C58.9019 25.0155 59.4235 24.9379 59.9841 24.9379C60.61 24.9379 61.1251 24.9896 61.5293 25.093C61.9335 25.1835 62.266 25.2804 62.5268 25.3839V25.093C62.5268 24.5889 62.3246 24.1753 61.9204 23.8522C61.5162 23.5161 61.0142 23.3481 60.4144 23.3481C59.5278 23.3481 58.778 23.7164 58.1652 24.4532L56.3071 23.193C57.3242 21.9262 58.7128 21.2929 60.4731 21.2929C61.9596 21.2929 63.094 21.6419 63.8763 22.3399C64.6586 23.0249 65.0498 24.046 65.0498 25.4032V31.1035H62.5268V30.0953ZM62.5268 27.2452C62.2269 27.103 61.9139 26.9931 61.5879 26.9155C61.275 26.8251 60.9295 26.7798 60.5513 26.7798C59.9385 26.7798 59.4626 26.9155 59.1236 27.187C58.7976 27.4455 58.6346 27.7686 58.6346 28.1564C58.6346 28.5442 58.7911 28.8544 59.104 29.0871C59.43 29.3197 59.8016 29.4361 60.2188 29.4361C60.5579 29.4361 60.8708 29.3779 61.1577 29.2616C61.4445 29.1323 61.6857 28.9707 61.8813 28.7768C62.0899 28.57 62.2464 28.3374 62.3507 28.0789C62.4681 27.8074 62.5268 27.5295 62.5268 27.2452Z" fill="white"/>
<path d="M67.9521 23.7746H66.2701V21.6031H67.9521V18.6948H70.5143V21.6031H72.8613V23.7746H70.5143V27.4584C70.5143 27.6782 70.5338 27.885 70.573 28.0789C70.6251 28.2598 70.7164 28.4149 70.8468 28.5442C71.0293 28.751 71.2901 28.8544 71.6291 28.8544C71.8508 28.8544 72.0268 28.835 72.1572 28.7962C72.2876 28.7445 72.4115 28.6799 72.5288 28.6023L73.2525 30.832C72.9526 30.9742 72.6266 31.0776 72.2745 31.1422C71.9355 31.2198 71.5574 31.2586 71.1401 31.2586C70.6577 31.2586 70.2209 31.1875 69.8297 31.0453C69.4516 30.8902 69.1321 30.6834 68.8714 30.4249C68.2585 29.8432 67.9521 29.016 67.9521 27.9431V23.7746Z" fill="white"/>
<path d="M76.2694 20.2265C76.0477 20.2265 75.8326 20.1877 75.6239 20.1102C75.4284 20.0197 75.2523 19.9034 75.0959 19.7612C74.9524 19.6061 74.8351 19.4316 74.7438 19.2377C74.6656 19.0438 74.6265 18.8305 74.6265 18.5979C74.6265 18.3652 74.6656 18.1519 74.7438 17.9581C74.8351 17.7642 74.9524 17.5961 75.0959 17.454C75.2523 17.2988 75.4284 17.1825 75.6239 17.105C75.8326 17.0145 76.0477 16.9692 76.2694 16.9692C76.7257 16.9692 77.1169 17.1308 77.4429 17.454C77.7689 17.7642 77.9319 18.1455 77.9319 18.5979C77.9319 19.0503 77.7689 19.438 77.4429 19.7612C77.1169 20.0714 76.7257 20.2265 76.2694 20.2265ZM74.9981 31.1035V21.6031H77.5602V31.1035H74.9981Z" fill="white"/>
<path d="M84.3452 21.2929C85.0884 21.2929 85.7665 21.4221 86.3793 21.6806C87.0052 21.9262 87.5398 22.2752 87.9831 22.7276C88.4395 23.1671 88.7915 23.6971 89.0393 24.3175C89.3001 24.9379 89.4304 25.6165 89.4304 26.3533C89.4304 27.09 89.3001 27.7686 89.0393 28.3891C88.7915 29.0095 88.4395 29.5459 87.9831 29.9983C87.5398 30.4378 87.0052 30.7868 86.3793 31.0453C85.7665 31.2909 85.0884 31.4137 84.3452 31.4137C83.602 31.4137 82.9174 31.2909 82.2916 31.0453C81.6787 30.7868 81.1441 30.4378 80.6878 29.9983C80.2444 29.5459 79.8924 29.0095 79.6316 28.3891C79.3839 27.7686 79.26 27.09 79.26 26.3533C79.26 25.6165 79.3839 24.9379 79.6316 24.3175C79.8924 23.6971 80.2444 23.1671 80.6878 22.7276C81.1441 22.2752 81.6787 21.9262 82.2916 21.6806C82.9174 21.4221 83.602 21.2929 84.3452 21.2929ZM84.3452 29.0677C84.6712 29.0677 84.9841 29.0095 85.284 28.8932C85.597 28.7639 85.8708 28.583 86.1055 28.3503C86.3402 28.1176 86.5227 27.8333 86.6531 27.4972C86.7966 27.1611 86.8683 26.7798 86.8683 26.3533C86.8683 25.9267 86.7966 25.5454 86.6531 25.2094C86.5227 24.8733 86.3402 24.5889 86.1055 24.3563C85.8708 24.1236 85.597 23.9491 85.284 23.8328C84.9841 23.7035 84.6712 23.6389 84.3452 23.6389C84.0062 23.6389 83.6868 23.7035 83.3869 23.8328C83.087 23.9491 82.8196 24.1236 82.585 24.3563C82.3503 24.5889 82.1612 24.8733 82.0178 25.2094C81.8874 25.5454 81.8222 25.9267 81.8222 26.3533C81.8222 26.7798 81.8874 27.1611 82.0178 27.4972C82.1612 27.8333 82.3503 28.1176 82.585 28.3503C82.8196 28.583 83.087 28.7639 83.3869 28.8932C83.6868 29.0095 84.0062 29.0677 84.3452 29.0677Z" fill="white"/>
<path d="M93.2914 22.844H93.4479C93.7478 22.3657 94.152 21.9909 94.6605 21.7194C95.169 21.4351 95.7493 21.2929 96.4012 21.2929C97.001 21.2929 97.5291 21.3898 97.9855 21.5837C98.4418 21.7776 98.8134 22.0555 99.1003 22.4174C99.4002 22.7664 99.6219 23.193 99.7653 23.6971C99.9218 24.1882 100 24.7376 100 25.3451V31.1035H97.4378V25.6553C97.4378 24.9702 97.2814 24.4661 96.9684 24.143C96.6685 23.8069 96.2252 23.6389 95.6385 23.6389C95.2864 23.6389 94.9735 23.7164 94.6996 23.8716C94.4389 24.0137 94.2107 24.2141 94.0151 24.4726C93.8325 24.7182 93.6891 25.0155 93.5848 25.3645C93.4935 25.7005 93.4479 26.0625 93.4479 26.4502V31.1035H90.8857V21.6031H93.2914V22.844Z" fill="white"/>
<defs>
<linearGradient id="paint0_linear_1548_649" x1="31.8076" y1="49.1915" x2="82.2222" y2="49.1915" gradientUnits="userSpaceOnUse">
<stop stop-color="#95DC78"/>
<stop offset="1" stop-color="#95DC78" stop-opacity="0.33"/>
</linearGradient>
<linearGradient id="paint1_linear_1548_649" x1="36.2189" y1="16.9693" x2="82.2222" y2="16.9693" gradientUnits="userSpaceOnUse">
<stop stop-color="#FFBB8A" stop-opacity="0.24"/>
<stop offset="1" stop-color="#FFBB8A"/>
</linearGradient>
</defs>
</svg>
