<svg width="88" height="46" viewBox="0 0 88 46" fill="none" xmlns="http://www.w3.org/2000/svg">
<path d="M72.0499 30.575C69.0097 38.0097 61.9048 43.225 53.6249 43.225C45.3451 43.225 38.2402 38.0097 35.2 30.575" stroke="url(#paint0_linear_1548_194)" stroke-width="5.05" stroke-linecap="round"/>
<path d="M72.05 15.1749C69.0097 7.74016 61.9048 2.5249 53.6249 2.5249C45.3451 2.5249 38.2402 7.74016 35.2 15.1749" stroke="url(#paint1_linear_1548_194)" stroke-width="5.05" stroke-linecap="round"/>
<path d="M3.60393 27.7578C3.05945 27.7578 2.5625 27.6725 2.11309 27.502C1.67233 27.3229 1.29638 27.0671 0.985246 26.7346C0.674116 26.4021 0.432125 26.0014 0.259275 25.5324C0.0864251 25.055 0 24.5135 0 23.9082V18.396H1.75011V24.0105C1.75011 24.3174 1.789 24.5988 1.86678 24.8546C1.94456 25.1104 2.06124 25.3321 2.2168 25.5196C2.37237 25.7072 2.56683 25.8564 2.80017 25.9673C3.03352 26.0696 3.30144 26.1207 3.60393 26.1207C3.91506 26.1207 4.1873 26.0696 4.42064 25.9673C4.65399 25.8564 4.84845 25.7072 5.00401 25.5196C5.15958 25.3321 5.27625 25.1104 5.35403 24.8546C5.43182 24.5988 5.47071 24.3174 5.47071 24.0105V18.396H7.22082V23.9082C7.22082 24.4794 7.13439 25.0038 6.96154 25.4813C6.79733 25.9502 6.55534 26.3552 6.23557 26.6962C5.92444 27.0288 5.54417 27.2888 5.09476 27.4764C4.65399 27.664 4.15705 27.7578 3.60393 27.7578Z" fill="#32333D"/>
<path d="M8.87947 18.396H12.263C12.7297 18.396 13.1532 18.4685 13.5335 18.6134C13.9137 18.7584 14.2378 18.9587 14.5057 19.2145C14.7823 19.4703 14.994 19.7772 15.141 20.1353C15.2879 20.4849 15.3614 20.8686 15.3614 21.2864C15.3614 21.5933 15.3095 21.8832 15.2058 22.156C15.1021 22.4204 14.9595 22.6634 14.778 22.885C14.5965 23.0982 14.3847 23.29 14.1428 23.4606C13.9008 23.6226 13.6458 23.7504 13.3779 23.8442L13.3649 23.9338L15.854 27.4508V27.5531H13.8446L11.4463 24.1128H10.6296V27.5531H8.87947V18.396ZM12.25 22.5269C12.6476 22.5269 12.9717 22.4076 13.2223 22.1688C13.4816 21.9301 13.6112 21.6274 13.6112 21.2608C13.6112 21.0988 13.581 20.9411 13.5205 20.7876C13.4686 20.6341 13.3865 20.4977 13.2742 20.3783C13.1618 20.259 13.0192 20.1652 12.8464 20.097C12.6822 20.0202 12.492 19.9819 12.276 19.9819H10.6296V22.5269H12.25Z" fill="#32333D"/>
<path d="M24.9351 25.5495C24.545 26.2287 24.0172 26.7777 23.3517 27.1965C22.6976 27.6154 21.8944 27.8248 20.942 27.8248C20.2995 27.8248 19.7028 27.7173 19.1521 27.5022C18.6128 27.2758 18.1423 26.9645 17.7407 26.5683C17.3391 26.1721 17.0236 25.708 16.7941 25.1759C16.5761 24.6326 16.4671 24.0383 16.4671 23.3931C16.4671 22.7931 16.5761 22.2271 16.7941 21.6951C17.0121 21.1517 17.3162 20.6819 17.7063 20.2857C18.0964 19.8782 18.5554 19.5556 19.0832 19.3179C19.6225 19.0802 20.2134 18.9613 20.856 18.9613C21.533 18.9613 22.1354 19.0745 22.6632 19.3009C23.191 19.516 23.6328 19.8216 23.9885 20.2178C24.3442 20.6027 24.6138 21.0612 24.7974 21.5932C24.981 22.1252 25.0728 22.7025 25.0728 23.3251C25.0728 23.4044 25.0728 23.4723 25.0728 23.5289C25.0613 23.5968 25.0556 23.6591 25.0556 23.7157C25.0441 23.7723 25.0384 23.8345 25.0384 23.9025H18.6873C18.7332 24.2421 18.825 24.5364 18.9627 24.7854C19.1119 25.0231 19.2897 25.2269 19.4963 25.3967C19.7143 25.5552 19.9495 25.674 20.202 25.7533C20.4544 25.8212 20.7126 25.8551 20.9765 25.8551C21.4928 25.8551 21.9174 25.7419 22.2501 25.5155C22.5944 25.2778 22.864 24.9835 23.0591 24.6326L24.9351 25.5495ZM22.8869 22.3233C22.8755 22.1762 22.8238 22.012 22.732 21.8309C22.6517 21.6498 22.5255 21.48 22.3534 21.3215C22.1928 21.163 21.9862 21.0329 21.7338 20.931C21.4928 20.8291 21.2002 20.7782 20.856 20.7782C20.3741 20.7782 19.9495 20.914 19.5823 21.1857C19.2152 21.4574 18.957 21.8366 18.8078 22.3233H22.8869Z" fill="#32333D"/>
<path d="M26.5128 27.5531V15.3955H28.7675V27.5531H26.5128Z" fill="#32333D"/>
<path d="M34.6071 18.9613C35.2611 18.9613 35.8578 19.0745 36.397 19.3009C36.9478 19.516 37.4183 19.8216 37.8084 20.2178C38.21 20.6027 38.5198 21.0668 38.7378 21.6102C38.9673 22.1535 39.082 22.7478 39.082 23.3931C39.082 24.0383 38.9673 24.6326 38.7378 25.1759C38.5198 25.7193 38.21 26.1891 37.8084 26.5853C37.4183 26.9702 36.9478 27.2758 36.397 27.5022C35.8578 27.7173 35.2611 27.8248 34.6071 27.8248C33.953 27.8248 33.3506 27.7173 32.7998 27.5022C32.2605 27.2758 31.7901 26.9702 31.3885 26.5853C30.9984 26.1891 30.6886 25.7193 30.4591 25.1759C30.2411 24.6326 30.1321 24.0383 30.1321 23.3931C30.1321 22.7478 30.2411 22.1535 30.4591 21.6102C30.6886 21.0668 30.9984 20.6027 31.3885 20.2178C31.7901 19.8216 32.2605 19.516 32.7998 19.3009C33.3506 19.0745 33.953 18.9613 34.6071 18.9613ZM34.6071 25.7702C34.8939 25.7702 35.1693 25.7193 35.4332 25.6174C35.7086 25.5042 35.9496 25.3457 36.1561 25.142C36.3626 24.9382 36.5233 24.6892 36.638 24.3949C36.7642 24.1006 36.8273 23.7666 36.8273 23.3931C36.8273 23.0195 36.7642 22.6856 36.638 22.3912C36.5233 22.0969 36.3626 21.8479 36.1561 21.6441C35.9496 21.4404 35.7086 21.2876 35.4332 21.1857C35.1693 21.0725 34.8939 21.0159 34.6071 21.0159C34.3087 21.0159 34.0276 21.0725 33.7637 21.1857C33.4998 21.2876 33.2646 21.4404 33.058 21.6441C32.8515 21.8479 32.6851 22.0969 32.5589 22.3912C32.4441 22.6856 32.3868 23.0195 32.3868 23.3931C32.3868 23.7666 32.4441 24.1006 32.5589 24.3949C32.6851 24.6892 32.8515 24.9382 33.058 25.142C33.2646 25.3457 33.4998 25.5042 33.7637 25.6174C34.0276 25.7193 34.3087 25.7702 34.6071 25.7702Z" fill="#32333D"/>
<path d="M48.5341 25.4306C48.167 26.1325 47.6506 26.7098 46.9851 27.1626C46.3311 27.6041 45.5106 27.8248 44.5238 27.8248C43.8698 27.8248 43.2674 27.7173 42.7166 27.5022C42.1773 27.2758 41.7069 26.9645 41.3053 26.5683C40.9152 26.1721 40.6054 25.708 40.3759 25.1759C40.1579 24.6326 40.0489 24.0383 40.0489 23.3931C40.0489 22.7478 40.1579 22.1535 40.3759 21.6102C40.6054 21.0668 40.9152 20.6027 41.3053 20.2178C41.7069 19.8216 42.1773 19.516 42.7166 19.3009C43.2674 19.0745 43.8698 18.9613 44.5238 18.9613C45.4992 18.9613 46.3196 19.1821 46.9851 19.6235C47.6506 20.065 48.1383 20.6367 48.4481 21.3385L46.3827 22.1875C46.1876 21.8026 45.9352 21.514 45.6254 21.3215C45.327 21.1178 44.9484 21.0159 44.4894 21.0159C44.1911 21.0159 43.91 21.0725 43.6461 21.1857C43.3821 21.2989 43.1469 21.4574 42.9404 21.6611C42.7453 21.8649 42.5904 22.1139 42.4757 22.4082C42.3609 22.7025 42.3036 23.0308 42.3036 23.3931C42.3036 23.7553 42.3609 24.0836 42.4757 24.3779C42.5904 24.6722 42.7453 24.9212 42.9404 25.125C43.1469 25.3288 43.3821 25.4872 43.6461 25.6004C43.91 25.7136 44.1911 25.7702 44.4894 25.7702C44.9599 25.7702 45.3557 25.6684 45.677 25.4646C46.0098 25.2495 46.2737 24.9439 46.4688 24.5477L48.5341 25.4306Z" fill="#32333D"/>
<path d="M55.0235 26.6702H54.8858C54.6219 26.9871 54.3007 27.2588 53.922 27.4852C53.5548 27.7116 53.0786 27.8248 52.4934 27.8248C52.0574 27.8248 51.6443 27.7512 51.2542 27.6041C50.8756 27.4682 50.5428 27.2758 50.256 27.0268C49.9691 26.7777 49.7453 26.4777 49.5847 26.1268C49.4241 25.7759 49.3437 25.391 49.3437 24.9722C49.3437 24.542 49.4298 24.1572 49.6019 23.8176C49.774 23.4666 50.015 23.1667 50.3248 22.9176C50.6346 22.6686 50.996 22.4818 51.4091 22.3573C51.8337 22.2214 52.2926 22.1535 52.786 22.1535C53.3368 22.1535 53.7901 22.1988 54.1458 22.2894C54.5015 22.3686 54.7941 22.4535 55.0235 22.5441V22.2894C55.0235 21.8479 54.8457 21.4857 54.49 21.2027C54.1343 20.9083 53.6925 20.7612 53.1647 20.7612C52.3844 20.7612 51.7247 21.0838 51.1854 21.729L49.5503 20.6253C50.4453 19.516 51.6673 18.9613 53.2163 18.9613C54.5244 18.9613 55.5227 19.267 56.2111 19.8782C56.8996 20.4782 57.2438 21.3725 57.2438 22.561V27.5531H55.0235V26.6702ZM55.0235 24.1741C54.7596 24.0496 54.4842 23.9534 54.1974 23.8855C53.922 23.8062 53.6179 23.7666 53.2852 23.7666C52.7459 23.7666 52.3271 23.8855 52.0287 24.1232C51.7419 24.3496 51.5984 24.6326 51.5984 24.9722C51.5984 25.3118 51.7361 25.5835 52.0115 25.7872C52.2984 25.991 52.6254 26.0929 52.9926 26.0929C53.2909 26.0929 53.5663 26.0419 53.8187 25.94C54.0712 25.8268 54.2834 25.6853 54.4556 25.5155C54.6392 25.3344 54.7768 25.1307 54.8686 24.9043C54.9719 24.6665 55.0235 24.4232 55.0235 24.1741Z" fill="#32333D"/>
<path d="M59.7979 21.1347H58.3177V19.233H59.7979V16.686H62.0526V19.233H64.1179V21.1347H62.0526V24.3609C62.0526 24.5534 62.0698 24.7345 62.1042 24.9043C62.1501 25.0627 62.2304 25.1986 62.3452 25.3118C62.5058 25.4929 62.7353 25.5835 63.0336 25.5835C63.2287 25.5835 63.3836 25.5665 63.4983 25.5325C63.6131 25.4872 63.7221 25.4306 63.8253 25.3627L64.4622 27.3154C64.1983 27.4399 63.9114 27.5305 63.6016 27.5871C63.3033 27.655 62.9705 27.689 62.6033 27.689C62.1788 27.689 61.7944 27.6267 61.4502 27.5022C61.1174 27.3663 60.8363 27.1852 60.6068 26.9588C60.0675 26.4494 59.7979 25.725 59.7979 24.7854V21.1347Z" fill="#32333D"/>
<path d="M67.1171 18.0274C66.922 18.0274 66.7327 17.9935 66.5491 17.9255C66.377 17.8463 66.2221 17.7444 66.0844 17.6199C65.9581 17.4841 65.8549 17.3312 65.7746 17.1614C65.7057 16.9917 65.6713 16.8049 65.6713 16.6011C65.6713 16.3974 65.7057 16.2106 65.7746 16.0408C65.8549 15.871 65.9581 15.7238 66.0844 15.5993C66.2221 15.4635 66.377 15.3616 66.5491 15.2937C66.7327 15.2144 66.922 15.1748 67.1171 15.1748C67.5187 15.1748 67.8629 15.3163 68.1497 15.5993C68.4366 15.871 68.58 16.2049 68.58 16.6011C68.58 16.9973 68.4366 17.3369 68.1497 17.6199C67.8629 17.8916 67.5187 18.0274 67.1171 18.0274ZM65.9983 27.5531V19.233H68.253V27.5531H65.9983Z" fill="#32333D"/>
<path d="M74.2238 18.9613C74.8778 18.9613 75.4745 19.0745 76.0138 19.3009C76.5646 19.516 77.035 19.8216 77.4251 20.2178C77.8267 20.6027 78.1366 21.0668 78.3546 21.6102C78.584 22.1535 78.6988 22.7478 78.6988 23.3931C78.6988 24.0383 78.584 24.6326 78.3546 25.1759C78.1366 25.7193 77.8267 26.1891 77.4251 26.5853C77.035 26.9702 76.5646 27.2758 76.0138 27.5022C75.4745 27.7173 74.8778 27.8248 74.2238 27.8248C73.5698 27.8248 72.9674 27.7173 72.4166 27.5022C71.8773 27.2758 71.4068 26.9702 71.0052 26.5853C70.6151 26.1891 70.3053 25.7193 70.0758 25.1759C69.8578 24.6326 69.7488 24.0383 69.7488 23.3931C69.7488 22.7478 69.8578 22.1535 70.0758 21.6102C70.3053 21.0668 70.6151 20.6027 71.0052 20.2178C71.4068 19.8216 71.8773 19.516 72.4166 19.3009C72.9674 19.0745 73.5698 18.9613 74.2238 18.9613ZM74.2238 25.7702C74.5107 25.7702 74.786 25.7193 75.0499 25.6174C75.3253 25.5042 75.5663 25.3457 75.7728 25.142C75.9794 24.9382 76.14 24.6892 76.2548 24.3949C76.381 24.1006 76.4441 23.7666 76.4441 23.3931C76.4441 23.0195 76.381 22.6856 76.2548 22.3912C76.14 22.0969 75.9794 21.8479 75.7728 21.6441C75.5663 21.4404 75.3253 21.2876 75.0499 21.1857C74.786 21.0725 74.5107 21.0159 74.2238 21.0159C73.9255 21.0159 73.6443 21.0725 73.3804 21.1857C73.1165 21.2876 72.8813 21.4404 72.6748 21.6441C72.4682 21.8479 72.3018 22.0969 72.1756 22.3912C72.0609 22.6856 72.0035 23.0195 72.0035 23.3931C72.0035 23.7666 72.0609 24.1006 72.1756 24.3949C72.3018 24.6892 72.4682 24.9382 72.6748 25.142C72.8813 25.3457 73.1165 25.5042 73.3804 25.6174C73.6443 25.7193 73.9255 25.7702 74.2238 25.7702Z" fill="#32333D"/>
<path d="M82.0965 20.3197H82.2341C82.498 19.9009 82.8538 19.5726 83.3013 19.3349C83.7488 19.0858 84.2594 18.9613 84.8331 18.9613C85.3609 18.9613 85.8256 19.0462 86.2272 19.216C86.6288 19.3858 86.9558 19.6292 87.2083 19.9461C87.4722 20.2518 87.6672 20.6253 87.7935 21.0668C87.9312 21.497 88 21.9781 88 22.5101V27.5531H85.7453V22.7818C85.7453 22.1818 85.6076 21.7404 85.3322 21.4574C85.0683 21.163 84.6782 21.0159 84.1618 21.0159C83.852 21.0159 83.5766 21.0838 83.3357 21.2196C83.1062 21.3442 82.9054 21.5196 82.7333 21.746C82.5726 21.9611 82.4464 22.2214 82.3546 22.5271C82.2743 22.8214 82.2341 23.1384 82.2341 23.478V27.5531H79.9794V19.233H82.0965V20.3197Z" fill="#32333D"/>
<defs>
<linearGradient id="paint0_linear_1548_194" x1="28.05" y1="43.225" x2="72.05" y2="43.225" gradientUnits="userSpaceOnUse">
<stop stop-color="#95DC78"/>
<stop offset="1" stop-color="#E2F6DA"/>
</linearGradient>
<linearGradient id="paint1_linear_1548_194" x1="31.9" y1="15.1749" x2="72.0499" y2="15.1749" gradientUnits="userSpaceOnUse">
<stop stop-color="#FFEBDC"/>
<stop offset="1" stop-color="#FFBB8A"/>
</linearGradient>
</defs>
</svg>
