<svg width="18" height="18" viewBox="0 0 18 18" fill="none" xmlns="http://www.w3.org/2000/svg">
<path fill-rule="evenodd" clip-rule="evenodd" d="M8.25581 0.0112695C7.326 0.11849 6.57946 0.282826 5.9142 0.526705C3.09786 1.55916 0.972349 3.9157 0.252366 6.80398C0.0452476 7.63481 0 8.02936 0 9.00474C0 9.98011 0.0452476 10.3747 0.252366 11.2055C1.0527 14.4161 3.58389 16.9473 6.7945 17.7476C7.62533 17.9548 8.01989 18 8.99526 18C9.97064 18 10.3652 17.9548 11.196 17.7476C14.4066 16.9473 16.9378 14.4161 17.7382 11.2055C17.9453 10.3747 17.9905 9.98011 17.9905 9.00474C17.9905 8.02936 17.9453 7.63481 17.7382 6.80398C17.018 3.91492 14.8965 1.56286 12.0763 0.526811C11.6195 0.35899 10.8174 0.155991 10.2981 0.0768345C9.94698 0.0232768 8.54247 -0.0217948 8.25581 0.0112695ZM9.64669 1.43493C10.4717 1.51504 11.1867 1.69149 11.9306 1.99847C13.7182 2.73616 15.2638 4.2818 16.0015 6.06942C16.7897 7.97932 16.7897 10.0302 16.0015 11.9401C15.2638 13.7277 13.7182 15.2733 11.9306 16.011C10.0207 16.7992 7.96985 16.7992 6.05994 16.011C4.27233 15.2733 2.72669 13.7277 1.98899 11.9401C1.20084 10.0302 1.20084 7.97932 1.98899 6.06942C2.72669 4.2818 4.27233 2.73616 6.05994 1.99847C7.21955 1.51993 8.48113 1.32173 9.64669 1.43493ZM12.1996 5.99677C12.1207 6.03051 11.2993 6.82602 9.91997 8.20447L7.76365 10.3594L6.85651 9.45517C5.91392 8.51553 5.77624 8.40856 5.50736 8.4069C5.32073 8.40574 5.02791 8.5661 4.92065 8.72822C4.81234 8.89188 4.77857 9.15037 4.84019 9.34394C4.87428 9.45109 5.1433 9.74155 6.10311 10.7075C6.90841 11.518 7.37054 11.9573 7.46353 12.0008C7.64685 12.0865 7.88076 12.0857 8.05982 11.9986C8.26359 11.8995 13.057 7.09898 13.1313 6.91954C13.2387 6.66017 13.1671 6.30939 12.9696 6.12783C12.7748 5.94871 12.4436 5.89233 12.1996 5.99677Z" fill="white"/>
</svg>
